<svg id="Layer_1" data-name="Layer 1" xmlns="http://www.w3.org/2000/svg" viewBox="0 0 24 25"><path d="M12.5,2.5A6.85,6.85,0,0,0,5.65,9.35V14.6a3.63,3.63,0,0,1-1.14,2.65h16a3.63,3.63,0,0,1-1.14-2.65V9.35A6.85,6.85,0,0,0,12.5,2.5ZM23,17.25a2.65,2.65,0,0,1-2.65-2.65V9.35a7.85,7.85,0,0,0-15.7,0V14.6A2.65,2.65,0,0,1,2,17.25a.5.5,0,0,0-.5.5.5.5,0,0,0,.5.5H23ZM10.31,21.31a.74.74,0,0,1,1,.27,1.36,1.36,0,0,0,2.34,0,.75.75,0,0,1,1.29.75,2.84,2.84,0,0,1-4.92,0A.74.74,0,0,1,10.31,21.31Z" style="fill:#7c8592;fill-rule:evenodd"/><path d="M4.26,17.13l-.43-.46a.62.62,0,0,0-.15.69.61.61,0,0,0,.58.39Zm16,0v.62a.61.61,0,0,0,.58-.39.62.62,0,0,0-.15-.69Zm2.51,0h.63a.63.63,0,0,0-.63-.63Zm0,1v.62a.63.63,0,0,0,.63-.62ZM11.08,21.45l.54-.31Zm-1-.27-.32-.54Zm3.36.27-.54-.31h0Zm1.29.75-.54-.31Zm-4.92,0-.54.32ZM6,9.23A6.22,6.22,0,0,1,12.25,3V1.75A7.47,7.47,0,0,0,4.78,9.23Zm0,5.25V9.23H4.78v5.25Zm-1.34,3.1A4.27,4.27,0,0,0,6,14.48H4.78a3,3,0,0,1-1,2.19ZM20.24,16.5h-16v1.25h16Zm-1.76-2a4.26,4.26,0,0,0,1.33,3.1l.86-.91a3,3,0,0,1-.94-2.19Zm0-5.25v5.25h1.25V9.23ZM12.25,3a6.23,6.23,0,0,1,6.23,6.23h1.25a7.48,7.48,0,0,0-7.48-7.48Zm10.5,13.5a2,2,0,0,1-2-2H19.48a3.26,3.26,0,0,0,3.27,3.27Zm-2-2V9.23H19.48v5.25Zm0-5.25A8.48,8.48,0,0,0,12.25.75V2a7.23,7.23,0,0,1,7.23,7.23ZM12.25.75A8.48,8.48,0,0,0,3.78,9.23H5A7.23,7.23,0,0,1,12.25,2ZM3.78,9.23v5.25H5V9.23Zm0,5.25a2,2,0,0,1-2,2v1.25A3.27,3.27,0,0,0,5,14.48Zm-2,2A1.14,1.14,0,0,0,.62,17.63H1.88a.12.12,0,0,1-.13.12ZM.62,17.63a1.13,1.13,0,0,0,1.13,1.12V17.5a.13.13,0,0,1,.13.13Zm1.13,1.12h21V17.5h-21Zm21.63-.62v-1H22.12v1Zm-11.76,3a1.37,1.37,0,0,0-1.88-.5l.63,1.08a.13.13,0,0,1,.17.05Zm.63.36a.73.73,0,0,1-.63-.36l-1.08.63a2,2,0,0,0,1.71,1Zm.63-.36a.73.73,0,0,1-.63.36v1.25a2,2,0,0,0,1.71-1Zm1.88-.5a1.37,1.37,0,0,0-1.88.5l1.08.63a.13.13,0,0,1,.17-.05Zm.49,1.88a1.37,1.37,0,0,0-.49-1.88l-.63,1.08a.12.12,0,0,1,0,.17Zm-3,1.73a3.46,3.46,0,0,0,3-1.73l-1.08-.63A2.21,2.21,0,0,1,12.25,23Zm-3-1.73a3.46,3.46,0,0,0,3,1.73V23a2.21,2.21,0,0,1-1.92-1.11Zm.49-1.88a1.37,1.37,0,0,0-.49,1.88l1.08-.63a.12.12,0,0,1,0-.17Z" style="fill:#7c8592"/></svg>