<svg id="Layer_1" data-name="Layer 1" xmlns="http://www.w3.org/2000/svg" viewBox="0 0 24 26"><path d="M20.88,17H7a2.91,2.91,0,0,1-1.47-.39v1.9A1.47,1.47,0,0,0,7,20H20.2a2.84,2.84,0,1,1-2.83,2.83,2.79,2.79,0,0,1,.39-1.43H11.45a2.79,2.79,0,0,1,.39,1.43,2.84,2.84,0,1,1-5.67,0,2.75,2.75,0,0,1,.41-1.45,2.88,2.88,0,0,1-2.5-2.85V3.13L.68,1.69A.7.7,0,1,1,1.22.4L5.05,2l0,0h0l0,0h.05l0,0v0l0,0h0v0h0v0h0v0s0,0,0,0h0a.05.05,0,0,1,0,0h0v0h0v.19h0V5.13L23.15,7.57h.19l0,0,0,0,0,0h.09l0,0h0s0,0,0,0h0v0a0,0,0,0,1,0,0h0s0,0,0,0h0l0,0h0v0l0,0V8s0,0,0,0h0v0h0v0h0v0h0v6A2.87,2.87,0,0,1,20.88,17ZM9,24.25a1.43,1.43,0,1,0-1.43-1.43A1.44,1.44,0,0,0,9,24.25Zm12.63-1.43a1.43,1.43,0,1,1-1.43-1.43A1.44,1.44,0,0,1,21.64,22.82ZM7,15.61H20.88a1.47,1.47,0,0,0,1.47-1.48V8.87L5.48,6.55v7.59A1.47,1.47,0,0,0,7,15.61Z" style="fill:#6e7faa;fill-rule:evenodd"/></svg>