<svg id="Layer_1" data-name="Layer 1" xmlns="http://www.w3.org/2000/svg" viewBox="0 0 64 64"><path d="M46.88,2.2H39.16C30.49,2.19,24.88,8,24.88,16.86v6.77H17.12a1.21,1.21,0,0,0-1.21,1.21v9.81a1.21,1.21,0,0,0,1.21,1.21h7.76V60.59a1.22,1.22,0,0,0,1.22,1.22H36.22a1.22,1.22,0,0,0,1.22-1.22V35.86h9.07a1.21,1.21,0,0,0,1.21-1.21V24.84a1.22,1.22,0,0,0-.36-.86,1.25,1.25,0,0,0-.86-.35H37.44V17.89c0-2.75.65-4.15,4.24-4.15h5.2a1.22,1.22,0,0,0,1.21-1.22V3.42A1.22,1.22,0,0,0,46.88,2.2Z" style="fill:#3b5998;fill-rule:evenodd"/></svg>