<svg id="Layer_1" data-name="Layer 1" xmlns="http://www.w3.org/2000/svg" viewBox="0 0 800 800"><path d="M790.65,408.86c0-32.78-2.66-56.7-8.41-81.5H408V475.29H627.66c-4.43,36.77-28.35,92.13-81.5,129.34l-.74,5,118.33,91.67,8.2.82c75.3-69.54,118.7-171.85,118.7-293.21" style="fill:#4285f4"/><path d="M408,798.63c107.63,0,198-35.44,264-96.56L546.16,604.63C512.5,628.1,467.32,644.49,408,644.49c-105.41,0-194.88-69.54-226.77-165.65l-4.68.4-123,95.22-1.6,4.48C117.42,709.15,252.06,798.63,408,798.63" style="fill:#34a853"/><path d="M181.2,478.84A245.27,245.27,0,0,1,167.91,400a258,258,0,0,1,12.84-78.84l-.22-5.28L55.94,219.12l-4.07,1.94a397.78,397.78,0,0,0,0,357.88L181.2,478.84" style="fill:#fbbc05"/><path d="M408,155.51c74.85,0,125.35,32.33,154.14,59.35L674.61,105C605.51,40.79,515.6,1.37,408,1.37c-155.91,0-290.55,89.47-356.1,219.69l128.88,100.1C213.09,225.05,302.56,155.51,408,155.51" style="fill:#eb4335"/></svg>