<svg id="Layer_1" data-name="Layer 1" xmlns="http://www.w3.org/2000/svg" viewBox="0 0 28 26"><polygon points="14.54 1.39 15.15 0.66 15.14 0.65 14.54 1.39" style="fill:#6e7faa"/><polygon points="13.45 1.39 12.85 0.65 12.84 0.66 13.45 1.39" style="fill:#6e7faa"/><polygon points="1.46 11.41 0.85 10.68 0.84 10.68 1.46 11.41" style="fill:#6e7faa"/><polygon points="1.34 12.61 0.6 13.21 0.62 13.23 0.63 13.24 1.34 12.61" style="fill:#6e7faa"/><polygon points="2.54 12.72 3.13 13.48 3.14 13.47 3.15 13.46 2.54 12.72" style="fill:#6e7faa"/><polygon points="4.86 10.81 5.81 10.81 5.81 8.78 4.25 10.07 4.86 10.81" style="fill:#6e7faa"/><polygon points="23.11 10.81 23.72 10.07 22.15 8.78 22.15 10.81 23.11 10.81" style="fill:#6e7faa"/><polygon points="25.42 12.72 26.05 12.01 26.04 12 26.03 11.99 25.42 12.72" style="fill:#6e7faa"/><polygon points="25.96 12.93 25.96 11.97 25.95 11.97 25.96 12.93" style="fill:#6e7faa"/><polygon points="26.62 12.61 25.93 11.95 25.91 11.98 25.88 12.01 26.62 12.61" style="fill:#6e7faa"/><rect x="11.04" y="23.03" width="0.95" height="0.95" style="fill:#6e7faa"/><polygon points="12 17.02 12.95 17.02 12.95 17.01 12.95 17 12 17.02" style="fill:#6e7faa"/><polygon points="12.86 16.16 12.84 17.11 12.85 17.11 12.86 17.11 12.86 16.16" style="fill:#6e7faa"/><polygon points="15.14 16.16 15.14 17.11 15.15 17.11 15.16 17.11 15.14 16.16" style="fill:#6e7faa"/><polygon points="16 17.02 15.04 17 15.04 17.01 15.04 17.02 16 17.02" style="fill:#6e7faa"/><rect x="16" y="23.03" width="0.95" height="0.95" style="fill:#6e7faa"/><rect x="19.58" y="-1.42" width="1.91" height="15.63" transform="translate(2.46 18.06) rotate(-50.13)" style="fill:#6e7faa"/><path d="M15.14.65a1.8,1.8,0,0,0-2.29,0l1.21,1.48a.09.09,0,0,1-.12,0Z" style="fill:#6e7faa"/><rect x="-0.36" y="5.44" width="15.63" height="1.91" transform="translate(-2.37 6.27) rotate(-39.87)" style="fill:#6e7faa"/><path d="M.84,10.68A1.82,1.82,0,0,0,.6,13.21L2.09,12a.1.1,0,0,1,0,.13Z" style="fill:#6e7faa"/><path d="M.63,13.24a1.83,1.83,0,0,0,2.5.24L2,12a.07.07,0,0,1,.1,0Z" style="fill:#6e7faa"/><rect x="2.2" y="10.81" width="3.01" height="1.91" transform="translate(-6.66 5.07) rotate(-39.66)" style="fill:#6e7faa"/><rect x="3.9" y="10.81" width="1.91" height="10.54" style="fill:#6e7faa"/><path d="M3.9,21.34a4.58,4.58,0,0,0,4.73,4.42V23.85a2.67,2.67,0,0,1-2.82-2.51Z" style="fill:#6e7faa"/><rect x="8.63" y="23.85" width="10.71" height="1.91" style="fill:#6e7faa"/><path d="M19.34,25.76a4.57,4.57,0,0,0,4.72-4.42H22.15a2.67,2.67,0,0,1-2.81,2.51Z" style="fill:#6e7faa"/><rect x="22.15" y="10.81" width="1.91" height="10.54" style="fill:#6e7faa"/><rect x="23.31" y="10.26" width="1.91" height="3.01" transform="matrix(0.64, -0.77, 0.77, 0.64, -0.28, 22.94)" style="fill:#6e7faa"/><path d="M24.79,13.44a1.74,1.74,0,0,0,1.19.44L26,12a.13.13,0,0,1,.1,0Z" style="fill:#6e7faa"/><path d="M26,13.88a1.82,1.82,0,0,0,1.39-.66L25.88,12A.09.09,0,0,1,26,12Z" style="fill:#6e7faa"/><path d="M27.31,13.27a1.77,1.77,0,0,0,.49-1.35l-1.91.14a.15.15,0,0,1,0-.11Z" style="fill:#6e7faa"/><path d="M27.8,12A2,2,0,0,0,27,10.52l-1.46,1.76a.15.15,0,0,1-.07-.12Z" style="fill:#6e7faa"/><rect x="11.04" y="17.02" width="1.91" height="6.01" style="fill:#6e7faa"/><path d="M13,17a.11.11,0,0,1,0,.08l-1.35-1.35A1.8,1.8,0,0,0,11,17Z" style="fill:#6e7faa"/><path d="M12.92,17.08a.08.08,0,0,1-.08,0l0-1.9a1.79,1.79,0,0,0-1.3.52Z" style="fill:#6e7faa"/><rect x="12.85" y="15.21" width="2.28" height="1.91" style="fill:#6e7faa"/><path d="M15.16,17.11s-.06,0-.09,0l1.36-1.35a1.83,1.83,0,0,0-1.31-.52Z" style="fill:#6e7faa"/><path d="M15.07,17.08A.11.11,0,0,1,15,17L17,17a1.83,1.83,0,0,0-.52-1.31Z" style="fill:#6e7faa"/><rect x="15.04" y="17.02" width="1.91" height="6.01" style="fill:#6e7faa"/><rect x="12" y="22.08" width="4" height="1.91" style="fill:#6e7faa"/><rect x="25.2" y="11.95" width="0.58" height="0.53" style="fill:#6e7faa"/></svg>