<svg id="Layer_1" data-name="Layer 1" xmlns="http://www.w3.org/2000/svg" viewBox="0 0 22 22"><path d="M7.7.32H2.79A2.48,2.48,0,0,0,.32,2.79V7.7a2.48,2.48,0,0,0,2.47,2.47H7.7A2.48,2.48,0,0,0,10.17,7.7V2.79A2.48,2.48,0,0,0,7.7.32ZM8.5,7.7a.8.8,0,0,1-.8.8H2.79A.8.8,0,0,1,2,7.7V2.79a.8.8,0,0,1,.8-.8H7.7a.8.8,0,0,1,.8.8ZM19.18.32H14.34a2.51,2.51,0,0,0-2.51,2.5V7.66a2.52,2.52,0,0,0,2.51,2.51h4.84a2.51,2.51,0,0,0,2.5-2.51V2.82A2.5,2.5,0,0,0,19.18.32ZM20,7.66a.84.84,0,0,1-.83.84H14.34a.85.85,0,0,1-.84-.84V2.82A.84.84,0,0,1,14.34,2h4.84a.83.83,0,0,1,.83.83ZM2.79,11.83H7.7a2.48,2.48,0,0,1,2.47,2.47v4.91A2.48,2.48,0,0,1,7.7,21.68H2.79A2.48,2.48,0,0,1,.32,19.21V14.3A2.48,2.48,0,0,1,2.79,11.83ZM7.7,20a.8.8,0,0,0,.8-.8V14.3a.8.8,0,0,0-.8-.8H2.79a.8.8,0,0,0-.8.8v4.91a.8.8,0,0,0,.8.8Zm11.48-8.18H14.34a2.52,2.52,0,0,0-2.51,2.51v4.84a2.51,2.51,0,0,0,2.51,2.5h4.84a2.5,2.5,0,0,0,2.5-2.5V14.34A2.51,2.51,0,0,0,19.18,11.83ZM20,19.18a.83.83,0,0,1-.83.83H14.34a.84.84,0,0,1-.84-.83V14.34a.85.85,0,0,1,.84-.84h4.84a.84.84,0,0,1,.83.84Z" style="fill:#6e7faa;fill-rule:evenodd"/></svg>