<svg id="Layer_1" data-name="Layer 1" xmlns="http://www.w3.org/2000/svg" viewBox="0 0 166 51"><path d="M60.77,47.53c9.21,0,13.54-3.62,13.54-9.66V27.63c0-6-4.34-9.65-13.54-9.65s-13.53,3.61-13.53,9.65V37.87C47.24,43.91,51.57,47.53,60.77,47.53Zm0-24.35c5.19,0,6.25,1.93,6.25,5.27v8.6c0,3.35-1.06,5.27-6.25,5.27s-6.25-1.93-6.25-5.27v-8.6C54.49,25.11,55.56,23.18,60.74,23.18Z" style="fill:#4d4d4f;fill-rule:evenodd"/><path d="M94.87,31c8.39,2.9,8.67,9.53,12.1,15.56a29.42,29.42,0,0,1-4.16.72c-7.78,0-3.38-11.41-15-13.27V47.25s-7.32,0-7.32-3.57V5s7.32,0,7.32,3.57v20c3.32-.49,5.18-2.91,7.71-7.56,1.07-2,3.19-2.69,5.41-2.69a14.06,14.06,0,0,1,4,.66C101.85,23,99.94,29,94.87,31Z" style="fill:#4d4d4f"/><path d="M121.28,23.29c4.33,0,5.46,1.75,5.46,3.73-.87,1.64-3.57,2.27-6.6,3-5,1.17-10.8,2.54-10.79,8.91,0,6.52,5.68,8.61,11.48,8.61a27.16,27.16,0,0,0,4.71-.52,24.66,24.66,0,0,1,4.13-.47,9.77,9.77,0,0,1,4.33.88V27.35c0-6-4.39-9.38-12.67-9.38-4.62,0-11.2,1.44-11.2,6.21a8.66,8.66,0,0,0,2.14,5.31C112.27,24.88,116.54,23.29,121.28,23.29Zm1.11,11.43c2-.45,4-.88,4.52-2.11v9a14.46,14.46,0,0,1-5.24,1c-3.21,0-5.07-1.26-5.07-3.73C116.6,36,119.6,35.33,122.39,34.72Z" style="fill:#4d4d4f;fill-rule:evenodd"/><path d="M158.51,27.84c0-2.9-1.41-4.55-5.41-4.55a20.18,20.18,0,0,0-5.35.78V47.25s-7.32,0-7.32-3.56V18a12,12,0,0,0,5.06,1.15c2.76,0,5.36-1.15,8.4-1.15,5.8,0,11.94,1.92,11.94,9.05V47.25s-7.32-.1-7.32-3.56Z" style="fill:#4d4d4f"/><path d="M3.38,2.63S29.31.75,29.31,22.7,22.45,49.06,16.45,50.45c0,0,25,5.9,25-25S9.57-.95,3.38,2.63Z" style="fill:#f1634c"/><path d="M24.48,40S22,48.48,14.42,49.56s-9-3-14.23-2.67a4.09,4.09,0,0,1,.94-3.07A4.25,4.25,0,0,1,4,42.32c4.26-.56,12.24.54,17.54-2.75,0,0,3.16-1.61,3.76-2.39Z" style="fill:#f1634c"/><path d="M3,4.16V41a6.88,6.88,0,0,1,.79-.15,42.06,42.06,0,0,1,4.49-.23c1.58,0,3.28-.06,5-.22V28c0-4.12-.27-8.33,0-12.45a6.79,6.79,0,0,1,4.33-5.52,7.28,7.28,0,0,1,5.8.37A34.68,34.68,0,0,0,3,4.16Z" style="fill:#f1634c"/></svg>